<?xml version="1.0" encoding="utf-8"?>
<!-- Generator: Adobe Illustrator 18.1.1, SVG Export Plug-In . SVG Version: 6.00 Build 0)  -->
<svg version="1.1" id="Layer_1" xmlns="http://www.w3.org/2000/svg" xmlns:xlink="http://www.w3.org/1999/xlink" x="0px" y="0px"
	 viewBox="0 0 1500 191.7" style="enable-background:new 0 0 1500 191.7;" xml:space="preserve">
<style type="text/css">
	.st0{fill:#343439;}
</style>
<g>
	<g>
		<path class="st0" d="M96,1058.8c0-12.3-12.3-17.5-18.8-18.6c-2.2-0.3-4.1-2.2-4.1-4.9V1022c0-2.7,1.9-4.1,3.8-4.6
			c2.5-0.5,19.1-7.1,19.1-18.8v-34.7c0-60.1,39.6-74,67.7-75.1c3-0.3,5.2,1.4,5.5,4.6l1.1,17.2c0.3,3-1.9,4.6-3.8,4.9
			c-21.3,4.6-36.6,20.5-36.6,48.3v28.7c0,23.5-20.2,34.4-22.7,35.5v1.1c7.4,3,22.7,12,22.7,34.1v29.2c0,27.8,15.3,43.4,36.6,47.8
			c1.9,0.5,4.1,2.2,3.8,5.2l-1.1,17.2c-0.3,2.7-2.7,4.9-5.5,4.6c-28.1-1.1-67.7-14.7-67.7-74.8V1058.8z"/>
		<path class="st0" d="M270.2,1063.2c0-22.1,15.3-31.1,22.7-34.1v-1.1c-2.5-1.1-22.7-12-22.7-35.5v-28.7c0-27.8-15.3-43.7-36.6-48.3
			c-1.9-0.3-4.1-1.9-3.8-4.9l1.1-17.2c0.3-3.3,2.5-4.9,5.5-4.6c28.1,1.1,67.7,15,67.7,75.1v34.7c0,11.7,16.7,18.3,19.1,18.8
			c1.9,0.5,3.8,1.9,3.8,4.6v13.4c0,2.7-1.9,4.6-4.1,4.9c-6.6,1.1-18.8,6.3-18.8,18.6v33.6c0,60.1-39.6,73.7-67.7,74.8
			c-2.7,0.3-5.2-1.9-5.5-4.6l-1.1-17.2c-0.3-3,1.9-4.6,3.8-5.2c21.3-4.4,36.6-19.9,36.6-47.8V1063.2z"/>
	</g>
</g>
<g>
	<g>
		<g>
			<path class="st0" d="M12.8,266.8c-1.5-0.1-6.6-0.8-6.6-7.3v-2.9c0-0.1-0.5-0.5-0.9-0.6c-0.7-0.2-1.1-0.7-1.1-1.4v-1.1
				c0-0.7,0.5-1.3,1.2-1.4h0c0,0,0.7-0.1,0.7-0.6v-2.8c0-4.4,2.5-7.2,6.7-7.3c0,0,0,0,0,0c0.8,0,1.4,0.6,1.5,1.3l0.1,1.5
				c0.1,0.7-0.4,1.3-1,1.5c-1.6,0.3-2.4,1.4-2.4,3.1v2.5c0,1.2-0.4,2.2-1.2,3c0.7,0.7,1.2,1.7,1.2,3v2.4c0,2.2,1.3,2.9,2.3,3.1
				c0.7,0.1,1.2,0.7,1.1,1.5l-0.1,1.4c-0.1,0.8-0.7,1.3-1.4,1.3L12.8,266.8z"/>
		</g>
		<g>
			<path class="st0" d="M19,266.8c-0.8,0-1.3-0.6-1.4-1.3l-0.1-1.5c-0.1-0.7,0.4-1.4,1.2-1.5c1-0.2,2.2-0.9,2.2-3.1V257
				c0-1.3,0.6-2.3,1.2-3c-0.8-0.7-1.2-1.8-1.2-3v-2.5c0-1.7-0.8-2.8-2.3-3.1c-0.8-0.2-1.2-0.8-1.1-1.5l0.1-1.4
				c0.1-0.8,0.7-1.3,1.4-1.3l0.1,0c4.1,0.2,6.6,2.9,6.6,7.3v2.8c0,0.4,0.7,0.6,0.8,0.6c0.7,0.1,1.2,0.7,1.2,1.4v1.1
				c0,0.6-0.4,1.2-1.1,1.4c-0.4,0.1-0.9,0.5-0.9,0.6v2.9C25.8,266,20.7,266.7,19,266.8L19,266.8z"/>
		</g>
	</g>
</g>
<g>
	<g>
		<path class="st0" d="M489.1,523.9c7.3,0,12.8,2.4,17.5,6.7c0.4,0.4,0.4,0.9,0.1,1.3l-1.2,1.2c-0.4,0.4-0.8,0.4-1.2-0.1
			c-4.1-3.7-9.3-5.9-15.2-5.9c-12.6,0-22.5,10.3-22.5,22.8c0,12.4,9.9,22.6,22.5,22.6c6.2,0,10.9-2.4,15.2-6
			c0.4-0.4,0.9-0.4,1.2-0.1l1.2,1.2c0.4,0.3,0.4,0.9,0,1.2c-4.9,4.8-11.2,7-17.6,7c-14.4,0-26.1-11.4-26.1-25.9
			C463,535.5,474.7,523.9,489.1,523.9z"/>
		<path class="st0" d="M518.3,525.5c0-0.5,0.4-0.9,0.9-0.9h17.9c8.8,0,16.1,6.6,16.1,15.4c0,7.3-5,13.1-11.9,15l10.5,18.6
			c0.4,0.6,0.2,1.3-0.5,1.3h-2.2c-0.5,0-0.8-0.2-1-0.6l-10.4-18.9c-0.9,0.1-1.7,0.1-2.7,0.1h-13.2v18.5c0,0.5-0.4,0.9-1.2,0.9h-1.3
			c-0.5,0-0.9-0.4-0.9-0.9V525.5z M537,552.5c6.9,0,12.7-5.4,12.7-12.5c0-6.8-5.8-12.1-12.8-12.1h-15.1v24.6H537z"/>
		<path class="st0" d="M565.1,525.5c0-0.5,0.4-0.9,0.9-0.9h28.9c0.5,0,0.9,0.4,0.9,0.9v1.2c0,0.5-0.4,0.9-0.9,0.9h-26.4v19.9h22.8
			c0.5,0,0.9,0.4,0.9,0.9v1.2c0,0.5-0.4,0.9-0.9,0.9h-22.8V572h26.4c0.5,0,0.9,0.4,0.9,0.9v1.2c0,0.5-0.4,0.9-0.9,0.9h-28.9
			c-0.5,0-0.9-0.4-0.9-0.9V525.5z"/>
		<path class="st0" d="M601,574.1l22.2-50.1c0.1-0.3,0.5-0.5,0.9-0.5h0.2c0.4,0,0.7,0.1,0.9,0.5l22,50.1c0.1,0.4,0.1,0.9-0.6,0.9
			h-1.9c-0.5,0-0.9-0.4-1-0.6l-5.8-13.2h-27.5l-5.8,13.2c-0.1,0.3-0.5,0.6-1,0.6h-2C601,575,600.8,574.7,601,574.1z M636.6,558.3
			l-12.3-29h-0.1l-12.5,29H636.6z"/>
		<path class="st0" d="M660,527.7h-13.8c-0.7,0-0.9-0.4-0.9-1.1v-1.1c0-0.6,0.4-0.9,0.9-0.9h31c0.6,0,0.9,0.4,0.9,0.9v1.2
			c0,0.5-0.4,0.9-0.9,0.9h-13.8v46.4c0,0.5-0.4,0.9-1.2,0.9H661c-0.5,0-0.9-0.4-0.9-0.9V527.7z"/>
		<path class="st0" d="M686.4,525.5c0-0.5,0.4-0.9,0.9-0.9h1.6c0.5,0,0.9,0.4,0.9,0.9v48.5c0,0.6-0.5,0.9-1,0.9h-1.5
			c-0.5,0-0.9-0.4-0.9-0.9V525.5z"/>
		<path class="st0" d="M697.9,525.5c-0.3-0.6-0.1-0.9,0.6-0.9h1.9c0.4,0,0.7,0.3,0.8,0.5l19.4,44.7c0,0,0.1,0,0.1,0l19.7-44.7
			c0.1-0.2,0.4-0.5,0.8-0.5h1.9c0.6,0,0.9,0.4,0.6,1l-22.1,49.5c-0.1,0.4-0.4,0.6-0.9,0.6h-0.4c-0.4,0-0.7-0.4-0.8-0.6L697.9,525.5z
			"/>
		<path class="st0" d="M752,525.5c0-0.5,0.4-0.9,0.9-0.9h28.9c0.5,0,0.9,0.4,0.9,0.9v1.2c0,0.5-0.4,0.9-0.9,0.9h-26.4v19.9h22.8
			c0.5,0,0.9,0.4,0.9,0.9v1.2c0,0.5-0.4,0.9-0.9,0.9h-22.8V572h26.4c0.5,0,0.9,0.4,0.9,0.9v1.2c0,0.5-0.4,0.9-0.9,0.9h-28.9
			c-0.5,0-0.9-0.4-0.9-0.9V525.5z"/>
	</g>
	<g>
		<path class="st0" d="M797.5,560.1c0-3.2-3.2-4.6-5-4.9c-0.6-0.1-1.1-0.6-1.1-1.3v-3.5c0-0.7,0.5-1.1,1-1.2c0.6-0.1,5-1.9,5-5V535
			c0-15.8,10.4-19.5,17.9-19.8c0.8-0.1,1.4,0.4,1.4,1.2l0.3,4.5c0.1,0.8-0.5,1.2-1,1.3c-5.6,1.2-9.6,5.4-9.6,12.7v7.6
			c0,6.2-5.3,9.1-6,9.4v0.3c1.9,0.8,6,3.2,6,9v7.7c0,7.3,4,11.4,9.6,12.6c0.5,0.1,1.1,0.6,1,1.4l-0.3,4.5c-0.1,0.7-0.7,1.3-1.4,1.2
			c-7.4-0.3-17.9-3.9-17.9-19.7V560.1z"/>
		<path class="st0" d="M824.6,526c0-0.7,0.6-1.4,1.4-1.4h16.5c8.6,0,15.2,5.8,15.2,13.3c0,5.5-4.5,9.9-7.9,11.4
			c3.8,1.2,9.4,5.1,9.4,11.7c0,8.1-6.9,13.9-15.7,13.9H826c-0.8,0-1.4-0.6-1.4-1.4V526z M841.6,545.8c3.7,0,6.2-2.9,6.2-6.5
			c0-3.6-2.5-6.1-6.2-6.1h-7.7v12.6H841.6z M842.6,566.5c3.6,0,6.5-2.8,6.5-6.6c0-3.6-3.6-6.3-7.3-6.3h-7.8v12.8H842.6z"/>
		<path class="st0" d="M862.5,573.1l22.4-48.5c0.2-0.4,0.6-0.8,1.2-0.8h0.7c0.7,0,1,0.4,1.2,0.8l22.2,48.5c0.4,0.9-0.1,1.9-1.2,1.9
			h-6.3c-1.1,0-1.6-0.4-2.1-1.4l-3.5-7.8h-21.5l-3.5,7.8c-0.3,0.7-0.9,1.4-2.1,1.4h-6.3C862.7,575,862.1,574.1,862.5,573.1z
			 M893.6,557.8l-7.2-15.8h-0.2l-7.1,15.8H893.6z"/>
		<path class="st0" d="M913.8,567.9l2.6-4.5c0.6-1,1.8-1,2.4-0.5c0.4,0.2,6.2,4.5,10.9,4.5c3.7,0,6.6-2.4,6.6-5.5
			c0-3.7-3.1-6.2-9.1-8.6c-6.8-2.7-13.5-7.1-13.5-15.6c0-6.4,4.8-13.8,16.2-13.8c7.3,0,13,3.7,14.4,4.8c0.7,0.4,0.9,1.7,0.4,2.4
			l-2.7,4.1c-0.6,0.9-1.7,1.4-2.5,0.9c-0.6-0.4-6-4-10-4c-4.1,0-6.3,2.7-6.3,5c0,3.4,2.7,5.7,8.5,8.1c7,2.8,15,7,15,16.3
			c0,7.4-6.4,14.3-16.6,14.3c-9.1,0-14.4-4.2-15.8-5.6C913.6,569.5,913.2,569.1,913.8,567.9z"/>
		<path class="st0" d="M955.8,526c0-0.7,0.6-1.4,1.4-1.4h6.7c0.7,0,1.4,0.6,1.4,1.4v47.7c0,0.7-0.6,1.4-1.4,1.4h-6.7
			c-0.7,0-1.4-0.6-1.4-1.4V526z"/>
		<path class="st0" d="M975.4,567.9l2.6-4.5c0.6-1,1.8-1,2.4-0.5c0.4,0.2,6.2,4.5,10.9,4.5c3.7,0,6.6-2.4,6.6-5.5
			c0-3.7-3.1-6.2-9.1-8.6c-6.8-2.7-13.5-7.1-13.5-15.6c0-6.4,4.8-13.8,16.2-13.8c7.3,0,13,3.7,14.4,4.8c0.7,0.4,0.9,1.7,0.4,2.4
			l-2.7,4.1c-0.6,0.9-1.7,1.4-2.5,0.9c-0.6-0.4-6-4-10-4c-4.1,0-6.3,2.7-6.3,5c0,3.4,2.7,5.7,8.5,8.1c7,2.8,15,7,15,16.3
			c0,7.4-6.4,14.3-16.6,14.3c-9.1,0-14.4-4.2-15.8-5.6C975.1,569.5,974.8,569.1,975.4,567.9z"/>
		<path class="st0" d="M1022.9,561.2c0-5.8,4-8.2,6-9V552c-0.6-0.3-6-3.2-6-9.4V535c0-7.3-4-11.5-9.6-12.7c-0.5-0.1-1.1-0.5-1-1.3
			l0.3-4.5c0.1-0.9,0.6-1.3,1.4-1.2c7.4,0.3,17.9,4,17.9,19.8v9.1c0,3.1,4.4,4.8,5,5c0.5,0.1,1,0.5,1,1.2v3.5c0,0.7-0.5,1.2-1.1,1.3
			c-1.7,0.3-5,1.7-5,4.9v8.9c0,15.8-10.4,19.4-17.9,19.7c-0.7,0.1-1.4-0.5-1.4-1.2l-0.3-4.5c-0.1-0.8,0.5-1.2,1-1.4
			c5.6-1.2,9.6-5.3,9.6-12.6V561.2z"/>
	</g>
</g>
<g>
	<g>
		<path class="st0" d="M68,22.6c19.2,0,33.4,6.4,45.7,17.5c0.9,0.9,1.1,2.4,0.2,3.4l-3,3.2c-1.1,1.1-2.1,0.9-3.2-0.2
			C97,36.9,83.4,31,68,31C35.1,31,9.4,57.9,9.4,90.4c0,32.3,25.7,59,58.6,59c16.2,0,28.4-6.4,39.6-15.8c1.1-0.9,2.3-0.9,3-0.4
			l3.2,3.2c0.9,0.8,0.9,2.3,0,3.2C101.1,152,84.7,157.9,68,157.9c-37.6,0-68-29.7-68-67.5C0,52.8,30.4,22.6,68,22.6z"/>
		<path class="st0" d="M144.3,26.9c0-1.3,0.9-2.4,2.4-2.4h46.6c22.9,0,41.9,17.3,41.9,40.2c0,19-13.2,34.2-31,39.3l27.4,48.7
			c0.9,1.5,0.6,3.4-1.3,3.4h-5.8c-1.3,0-2.1-0.6-2.6-1.7l-27.2-49.2c-2.4,0.2-4.5,0.2-7,0.2h-34.6v48.3c0,1.3-1.1,2.4-3,2.4h-3.4
			c-1.3,0-2.4-1.1-2.4-2.4V26.9z M193,97.4c18,0,33.3-14.1,33.3-32.7c0-17.9-15.2-31.6-33.4-31.6h-39.5v64.3H193z"/>
		<path class="st0" d="M266.4,26.9c0-1.3,1.1-2.4,2.4-2.4h75.4c1.3,0,2.4,1.1,2.4,2.4v3.2c0,1.3-1.1,2.4-2.4,2.4h-68.8v51.9H335
			c1.3,0,2.4,1.1,2.4,2.4V90c0,1.3-1.1,2.4-2.4,2.4h-59.6v55.6h68.8c1.3,0,2.4,1.1,2.4,2.4v3c0,1.3-1.1,2.4-2.4,2.4h-75.4
			c-1.3,0-2.4-1.1-2.4-2.4V26.9z"/>
		<path class="st0" d="M360,153.7l57.9-130.8c0.4-0.8,1.3-1.3,2.3-1.3h0.6c0.9,0,1.9,0.2,2.4,1.3l57.3,130.8
			c0.4,1.1,0.4,2.3-1.7,2.3h-4.9c-1.3,0-2.3-0.9-2.6-1.7L456,119.7h-71.8l-15,34.6c-0.4,0.8-1.3,1.7-2.6,1.7h-5.3
			C360,156,359.4,155.2,360,153.7z M452.8,112.4l-32.1-75.7h-0.4l-32.7,75.7H452.8z"/>
		<path class="st0" d="M514.1,32.5h-35.9c-1.9,0-2.4-1.1-2.4-2.8v-2.8c0-1.5,1.1-2.4,2.4-2.4H559c1.5,0,2.4,1.1,2.4,2.4v3.2
			c0,1.3-0.9,2.4-2.4,2.4h-36.1v121c0,1.3-1.1,2.4-3,2.4h-3.4c-1.3,0-2.4-1.1-2.4-2.4V32.5z"/>
		<path class="st0" d="M582.8,26.9c0-1.3,1.1-2.4,2.4-2.4h4.1c1.3,0,2.4,1.1,2.4,2.4v126.6c0,1.5-1.3,2.4-2.6,2.4h-3.9
			c-1.3,0-2.4-1.1-2.4-2.4V26.9z"/>
		<path class="st0" d="M612.9,26.9c-0.8-1.5-0.2-2.4,1.5-2.4h5.1c1.1,0,1.9,0.8,2.1,1.3l50.7,116.7c0,0,0.2,0,0.4,0l51.3-116.7
			c0.2-0.6,0.9-1.3,2.1-1.3h4.9c1.7,0,2.4,1.1,1.7,2.6l-57.7,129.1c-0.4,0.9-1.1,1.7-2.3,1.7h-0.9c-1.1,0-1.9-1.1-2.1-1.7
			L612.9,26.9z"/>
		<path class="st0" d="M754,26.9c0-1.3,1.1-2.4,2.4-2.4h75.4c1.3,0,2.4,1.1,2.4,2.4v3.2c0,1.3-1.1,2.4-2.4,2.4H763v51.9h59.6
			c1.3,0,2.4,1.1,2.4,2.4V90c0,1.3-1.1,2.4-2.4,2.4H763v55.6h68.8c1.3,0,2.4,1.1,2.4,2.4v3c0,1.3-1.1,2.4-2.4,2.4h-75.4
			c-1.3,0-2.4-1.1-2.4-2.4V26.9z"/>
	</g>
	<g>
		<path class="st0" d="M872.8,117.1c0-8.5-8.5-12-13-12.8c-1.5-0.2-2.8-1.5-2.8-3.4v-9.2c0-1.9,1.3-2.8,2.6-3.2
			c1.7-0.4,13.2-4.9,13.2-13V51.7c0-41.3,27.2-50.9,46.6-51.7c2.1-0.2,3.6,0.9,3.8,3.2l0.8,11.8c0.2,2.1-1.3,3.2-2.6,3.4
			c-14.7,3.2-25.2,14.1-25.2,33.3v19.7c0,16.2-13.9,23.7-15.6,24.4v0.8c5.1,2.1,15.6,8.3,15.6,23.5v20.1c0,19.2,10.5,29.9,25.2,32.9
			c1.3,0.4,2.8,1.5,2.6,3.6l-0.8,11.8c-0.2,1.9-1.9,3.4-3.8,3.2c-19.4-0.8-46.6-10.1-46.6-51.5V117.1z"/>
		<path class="st0" d="M943.7,28c0-1.9,1.5-3.6,3.6-3.6h43c22.4,0,39.6,15,39.6,34.8c0,14.5-11.8,25.7-20.7,29.9
			c10,3.2,24.4,13.3,24.4,30.6c0,21-18,36.3-41,36.3h-45.5c-2.1,0-3.6-1.7-3.6-3.6V28z M988,79.7c9.6,0,16.2-7.5,16.2-16.9
			c0-9.4-6.6-16-16.2-16h-20.1v32.9H988z M990.6,133.8c9.4,0,16.9-7.3,16.9-17.1c0-9.4-9.4-16.3-19.2-16.3h-20.5v33.4H990.6z"/>
		<path class="st0" d="M1042.5,151.1l58.4-126.5c0.6-1.1,1.5-2.1,3.2-2.1h1.9c1.9,0,2.6,0.9,3.2,2.1l57.9,126.5
			c1.1,2.4-0.4,4.9-3.2,4.9h-16.3c-2.8,0-4.1-1.1-5.4-3.8l-9.2-20.3h-56.2l-9.2,20.3c-0.8,1.9-2.4,3.8-5.4,3.8h-16.3
			C1042.9,156,1041.4,153.5,1042.5,151.1z M1123.7,111.1l-18.8-41.3h-0.6l-18.4,41.3H1123.7z"/>
		<path class="st0" d="M1176.4,137.6l6.8-11.7c1.5-2.6,4.7-2.6,6.4-1.3c0.9,0.6,16.2,11.7,28.4,11.7c9.8,0,17.1-6.4,17.1-14.5
			c0-9.6-8.1-16.2-23.9-22.5c-17.7-7.1-35.3-18.4-35.3-40.6c0-16.7,12.4-36.1,42.3-36.1c19.2,0,33.8,9.8,37.6,12.6
			c1.9,1.1,2.4,4.3,1.1,6.2l-7.1,10.7c-1.5,2.3-4.3,3.8-6.6,2.3c-1.5-0.9-15.8-10.3-26.1-10.3c-10.7,0-16.5,7.1-16.5,13.2
			c0,8.8,7,14.8,22.2,21c18.2,7.3,39.3,18.2,39.3,42.5c0,19.4-16.7,37.2-43.2,37.2c-23.7,0-37.6-11.1-41.3-14.7
			C1175.7,141.5,1174.8,140.6,1176.4,137.6z"/>
		<path class="st0" d="M1286,28c0-1.9,1.7-3.6,3.6-3.6h17.5c1.9,0,3.6,1.7,3.6,3.6v124.4c0,1.9-1.7,3.6-3.6,3.6h-17.5
			c-1.9,0-3.6-1.7-3.6-3.6V28z"/>
		<path class="st0" d="M1337.1,137.6l6.8-11.7c1.5-2.6,4.7-2.6,6.4-1.3c0.9,0.6,16.2,11.7,28.4,11.7c9.8,0,17.1-6.4,17.1-14.5
			c0-9.6-8.1-16.2-23.9-22.5c-17.7-7.1-35.3-18.4-35.3-40.6c0-16.7,12.4-36.1,42.3-36.1c19.2,0,33.8,9.8,37.6,12.6
			c1.9,1.1,2.4,4.3,1.1,6.2l-7.1,10.7c-1.5,2.3-4.3,3.8-6.6,2.3c-1.5-0.9-15.8-10.3-26.1-10.3c-10.7,0-16.5,7.1-16.5,13.2
			c0,8.8,7,14.8,22.2,21c18.2,7.3,39.3,18.2,39.3,42.5c0,19.4-16.7,37.2-43.2,37.2c-23.7,0-37.6-11.1-41.3-14.7
			C1336.3,141.5,1335.4,140.6,1337.1,137.6z"/>
		<path class="st0" d="M1460.9,120.1c0-15.2,10.5-21.4,15.6-23.5v-0.8c-1.7-0.8-15.6-8.3-15.6-24.4V51.7c0-19.2-10.5-30.1-25.2-33.3
			c-1.3-0.2-2.8-1.3-2.6-3.4l0.8-11.8c0.2-2.3,1.7-3.4,3.8-3.2c19.4,0.8,46.6,10.3,46.6,51.7v23.9c0,8.1,11.5,12.6,13.2,13
			c1.3,0.4,2.6,1.3,2.6,3.2v9.2c0,1.9-1.3,3.2-2.8,3.4c-4.5,0.8-13,4.3-13,12.8v23.1c0,41.3-27.2,50.7-46.6,51.5
			c-1.9,0.2-3.6-1.3-3.8-3.2l-0.8-11.8c-0.2-2.1,1.3-3.2,2.6-3.6c14.7-3,25.2-13.7,25.2-32.9V120.1z"/>
	</g>
</g>
</svg>
